<?xml version="1.0" encoding="utf-8"?>
<!-- Generator: Adobe Illustrator 19.1.0, SVG Export Plug-In . SVG Version: 6.00 Build 0)  -->
<svg version="1.1" id="Layer_1" xmlns="http://www.w3.org/2000/svg" xmlns:xlink="http://www.w3.org/1999/xlink" x="0px" y="0px"
	 viewBox="197 -86.72 814.095 768" style="enable-background:new 197 -86.72 814.095 768;" xml:space="preserve">
<style type="text/css">
	.st0{fill:#202020;}
	.st1{fill:#CAD747;}
</style>
<path class="st0" d="M604.047,681.28c-3.84,0-9.6-1.92-13.44-3.84c-13.44-11.52-336-249.6-385.92-453.12
	c-19.2-82.56-1.92-168.96,46.08-230.4c42.24-51.84,101.76-80.64,168.96-80.64c96,0,153.6,49.92,184.32,97.92
	c30.72-48,90.24-97.92,184.32-97.92c67.2,0,126.72,28.8,168.96,82.56c48,61.44,65.28,147.84,46.08,230.4
	c-48,201.6-370.56,439.68-384,451.2C615.568,679.36,609.807,681.28,604.047,681.28z"/>
<path class="st1" d="M419.728-38.72c-67.2,0-109.44,34.56-130.56,63.36c-38.4,49.92-53.76,122.88-36.48,190.08
	c40.32,163.2,289.92,364.8,353.28,412.8c63.36-48,312.96-251.52,353.28-412.8c15.36-67.2,1.92-140.16-36.48-188.16
	c-24.96-30.72-67.2-65.28-134.4-65.28c-128.64,0-161.28,109.44-161.28,111.36c-1.92,9.6-11.52,17.28-23.04,17.28l0,0
	c-11.52,0-19.2-7.68-23.04-17.28C581.008,68.8,548.367-38.72,419.728-38.72z"/>
</svg>
